<svg width="17" height="17" viewBox="0 0 17 17" fill="none" xmlns="http://www.w3.org/2000/svg">
<g id="TrendUp" clip-path="url(#clip0_942_38735)">
<path id="Vector" d="M17 13.4445V9.00015C17.0001 8.89022 16.9645 8.78272 16.8978 8.69129C16.8311 8.59985 16.7363 8.52857 16.6253 8.48649C16.5143 8.44441 16.3921 8.43341 16.2743 8.45488C16.1565 8.47635 16.0482 8.52933 15.9633 8.60711L13.9643 10.4369L9.53684 6.38496C9.48046 6.33331 9.4135 6.29233 9.33979 6.26437C9.26609 6.23642 9.18709 6.22203 9.1073 6.22203C9.02751 6.22203 8.94851 6.23642 8.8748 6.26437C8.8011 6.29233 8.73414 6.33331 8.67775 6.38496L6.07165 8.7703L1.03701 4.1628C0.923091 4.05856 0.768579 4 0.607468 4C0.446358 4 0.291846 4.05856 0.177923 4.1628C0.064001 4.26705 0 4.40843 0 4.55585C0 4.70327 0.064001 4.84465 0.177923 4.94889L5.6421 9.94874C5.69849 10.0004 5.76545 10.0414 5.83915 10.0693C5.91285 10.0973 5.99186 10.1117 6.07165 10.1117C6.15143 10.1117 6.23044 10.0973 6.30414 10.0693C6.37784 10.0414 6.4448 10.0004 6.50119 9.94874L9.1073 7.56339L13.106 11.2223L11.1063 13.0514C11.0213 13.1291 10.9634 13.2281 10.9399 13.336C10.9164 13.4438 10.9285 13.5556 10.9745 13.6571C11.0204 13.7587 11.0983 13.8455 11.1983 13.9065C11.2982 13.9676 11.4157 14.0001 11.5358 14H16.3929C16.5539 14 16.7083 13.9415 16.8222 13.8373C16.936 13.7331 17 13.5918 17 13.4445Z" fill="#D82F44"/>
</g>
<defs>
<clipPath id="clip0_942_38735">
<rect width="17" height="17" fill="white" transform="matrix(1 0 0 -1 0 17)"/>
</clipPath>
</defs>
</svg>
