<svg width="17" height="17" viewBox="0 0 17 17" fill="none" xmlns="http://www.w3.org/2000/svg">
<g id="TrendUp" clip-path="url(#clip0_942_38740)">
<path id="Vector" d="M17 3.55554V7.99985C17.0001 8.10978 16.9645 8.21728 16.8978 8.30871C16.8311 8.40015 16.7363 8.47143 16.6253 8.51351C16.5143 8.55559 16.3921 8.56659 16.2743 8.54512C16.1565 8.52365 16.0482 8.47067 15.9633 8.39289L13.9643 6.56308L9.53684 10.615C9.48046 10.6667 9.4135 10.7077 9.33979 10.7356C9.26609 10.7636 9.18709 10.778 9.1073 10.778C9.02751 10.778 8.94851 10.7636 8.8748 10.7356C8.8011 10.7077 8.73414 10.6667 8.67775 10.615L6.07165 8.2297L1.03701 12.8372C0.923091 12.9414 0.768579 13 0.607468 13C0.446358 13 0.291846 12.9414 0.177923 12.8372C0.064001 12.733 0 12.5916 0 12.4442C0 12.2967 0.064001 12.1553 0.177923 12.0511L5.6421 7.05126C5.69849 6.99961 5.76545 6.95864 5.83915 6.93068C5.91285 6.90272 5.99186 6.88833 6.07165 6.88833C6.15143 6.88833 6.23044 6.90272 6.30414 6.93068C6.37784 6.95864 6.4448 6.99961 6.50119 7.05126L9.1073 9.43661L13.106 5.77769L11.1063 3.94858C11.0213 3.87089 10.9634 3.77186 10.9399 3.66404C10.9164 3.55622 10.9285 3.44445 10.9745 3.34288C11.0204 3.24132 11.0983 3.15452 11.1983 3.09349C11.2982 3.03245 11.4157 2.99991 11.5358 3H16.3929C16.5539 3 16.7083 3.05853 16.8222 3.16271C16.936 3.2669 17 3.4082 17 3.55554Z" fill="#19AF55"/>
</g>
<defs>
<clipPath id="clip0_942_38740">
<rect width="17" height="17" fill="white"/>
</clipPath>
</defs>
</svg>
