<svg width="17" height="17" viewBox="0 0 17 17" fill="none" xmlns="http://www.w3.org/2000/svg">
<g id="DiceThree" clip-path="url(#clip0_942_50949)">
<path id="Vector" d="M14.1667 0H2.83333C2.08189 0 1.36122 0.298511 0.829864 0.829864C0.298511 1.36122 0 2.08189 0 2.83333V14.1667C0 14.9181 0.298511 15.6388 0.829864 16.1701C1.36122 16.7015 2.08189 17 2.83333 17H14.1667C14.9181 17 15.6388 16.7015 16.1701 16.1701C16.7015 15.6388 17 14.9181 17 14.1667V2.83333C17 2.08189 16.7015 1.36122 16.1701 0.829864C15.6388 0.298511 14.9181 0 14.1667 0ZM5.3125 6.375C5.10236 6.375 4.89693 6.31269 4.72221 6.19594C4.54748 6.07919 4.4113 5.91325 4.33088 5.7191C4.25046 5.52495 4.22942 5.31132 4.27042 5.10522C4.31141 4.89911 4.41261 4.70979 4.5612 4.5612C4.70979 4.41261 4.89911 4.31141 5.10522 4.27042C5.31132 4.22942 5.52495 4.25046 5.7191 4.33088C5.91325 4.4113 6.07919 4.54748 6.19594 4.72221C6.31269 4.89693 6.375 5.10236 6.375 5.3125C6.375 5.59429 6.26306 5.86454 6.0638 6.0638C5.86454 6.26306 5.59429 6.375 5.3125 6.375ZM8.5 9.5625C8.28986 9.5625 8.08443 9.50019 7.90971 9.38344C7.73498 9.26669 7.5988 9.10075 7.51838 8.9066C7.43796 8.71245 7.41692 8.49882 7.45792 8.29272C7.49891 8.08661 7.60011 7.89729 7.7487 7.7487C7.89729 7.60011 8.08661 7.49891 8.29272 7.45792C8.49882 7.41692 8.71245 7.43796 8.9066 7.51838C9.10075 7.5988 9.26669 7.73498 9.38344 7.90971C9.50019 8.08443 9.5625 8.28986 9.5625 8.5C9.5625 8.78179 9.45056 9.05204 9.2513 9.2513C9.05204 9.45056 8.78179 9.5625 8.5 9.5625ZM11.6875 12.75C11.4774 12.75 11.2719 12.6877 11.0972 12.5709C10.9225 12.4542 10.7863 12.2882 10.7059 12.0941C10.6255 11.9 10.6044 11.6863 10.6454 11.4802C10.6864 11.2741 10.7876 11.0848 10.9362 10.9362C11.0848 10.7876 11.2741 10.6864 11.4802 10.6454C11.6863 10.6044 11.9 10.6255 12.0941 10.7059C12.2882 10.7863 12.4542 10.9225 12.5709 11.0972C12.6877 11.2719 12.75 11.4774 12.75 11.6875C12.75 11.9693 12.6381 12.2395 12.4388 12.4388C12.2395 12.6381 11.9693 12.75 11.6875 12.75Z" fill="#8398AF"/>
</g>
<defs>
<clipPath id="clip0_942_50949">
<rect width="17" height="17" fill="white"/>
</clipPath>
</defs>
</svg>
