<svg width="17" height="17" viewBox="0 0 17 17" fill="none" xmlns="http://www.w3.org/2000/svg">
<g id="Group 8">
<circle id="Oval" cx="8.5" cy="8.5" r="8.5" fill="#00B190"/>
<g id="megaphone">
<g id="file-code">
<path id="Shape" fill-rule="evenodd" clip-rule="evenodd" d="M9.35004 3.5415H5.80837C5.33893 3.5415 4.95837 3.91149 4.95837 4.36789V11.9234C4.95837 12.3798 5.33893 12.7498 5.80837 12.7498H11.9C12.3695 12.7498 12.75 12.3798 12.75 11.9234V6.84706H9.35004V3.5415ZM10.2 3.5415V6.02067H12.75L10.2 3.5415ZM7.43754 7.7915C7.24194 7.7915 7.08337 7.95007 7.08337 8.14567V10.979C7.08337 11.1746 7.24194 11.3332 7.43754 11.3332C7.63314 11.3332 7.79171 11.1746 7.79171 10.979V8.14567C7.79171 7.95007 7.63314 7.7915 7.43754 7.7915ZM8.50004 9.56234C8.50004 9.36674 8.65861 9.20817 8.85421 9.20817C9.04981 9.20817 9.20837 9.36674 9.20837 9.56234V10.979C9.20837 11.1746 9.04981 11.3332 8.85421 11.3332C8.65861 11.3332 8.50004 11.1746 8.50004 10.979V9.56234ZM10.2709 8.49984C10.0753 8.49984 9.91671 8.6584 9.91671 8.854V10.979C9.91671 11.1746 10.0753 11.3332 10.2709 11.3332C10.4665 11.3332 10.625 11.1746 10.625 10.979V8.854C10.625 8.6584 10.4665 8.49984 10.2709 8.49984Z" fill="white"/>
</g>
</g>
</g>
</svg>
