<svg width="17" height="17" viewBox="0 0 17 17" fill="none" xmlns="http://www.w3.org/2000/svg">
<g id="Icons / Medium / Dividend">
<g id="Group 8">
<circle id="Oval" cx="8.5" cy="8.5" r="8.5" fill="#FF9923"/>
<path id="Shape" fill-rule="evenodd" clip-rule="evenodd" d="M8.51659 4.83338C10.0194 4.45729 11.5244 4.08062 12.8417 4.33083H12.8251C13.1936 4.42964 13.4534 4.76818 13.4614 5.15985V7.58008C13.0347 7.56893 12.5444 7.60556 11.9902 7.68706C11.7967 7.71552 11.6629 7.89547 11.6913 8.08899C11.7198 8.28251 11.8997 8.41632 12.0932 8.38786C12.6266 8.30942 13.0828 8.27773 13.4614 8.28886V11.2691C13.4649 11.401 13.4086 11.5271 13.309 11.6104C13.2095 11.6937 13.078 11.7246 12.9532 11.6942C11.6148 11.3812 10.0623 11.7729 8.50882 12.1649C7.00252 12.5449 5.49524 12.9252 4.18123 12.6635C3.80779 12.5727 3.54423 12.2294 3.54492 11.8345V9.16149C3.99219 9.07574 4.4863 9.03255 5.02747 9.03255C5.22307 9.03255 5.38163 8.87399 5.38163 8.67839C5.38163 8.48278 5.22307 8.32422 5.02747 8.32422C4.49597 8.32422 4.00173 8.3632 3.54492 8.44161V5.70828C3.54658 5.57931 3.60504 5.45809 3.70385 5.37874C3.80267 5.29938 3.93116 5.27047 4.05315 5.30015C5.39639 5.61426 6.95527 5.22413 8.51659 4.83338ZM8.50651 9.91927C9.28892 9.91927 9.92318 9.28501 9.92318 8.5026C9.92318 7.7202 9.28892 7.08594 8.50651 7.08594C7.72411 7.08594 7.08985 7.7202 7.08985 8.5026C7.08985 9.28501 7.72411 9.91927 8.50651 9.91927Z" fill="white"/>
</g>
</g>
</svg>
