<svg width="17" height="17" viewBox="0 0 17 17" fill="none" xmlns="http://www.w3.org/2000/svg">
<g id="Group 8">
<circle id="Oval" cx="8.5" cy="8.5" r="8.5" fill="#0088EA"/>
<g id="megaphone">
<path id="Shape" fill-rule="evenodd" clip-rule="evenodd" d="M3.54163 7.08337C3.54163 6.34986 4.13622 5.75524 4.86968 5.75524H8.87594L10.0683 4.8163C10.7243 4.29977 11.687 4.76703 11.687 5.60196V11.221C11.687 12.0559 10.7243 12.5232 10.0683 12.0067L8.87594 11.0677H8.03488L8.79187 12.9537C8.87897 13.1721 8.87565 13.4161 8.78265 13.632C8.68964 13.8479 8.51458 14.018 8.29606 14.1047C8.19147 14.1449 8.0805 14.1659 7.96848 14.1667C7.60565 14.1671 7.27933 13.946 7.14508 13.6089L6.13133 11.0677H4.86968C4.13622 11.0677 3.54163 10.4731 3.54163 9.73962V7.08337ZM13.4583 8.41149C13.4583 9.04036 13.1198 9.62054 12.5724 9.92998V6.893C13.1198 7.20245 13.4583 7.78263 13.4583 8.41149Z" fill="white"/>
</g>
</g>
</svg>
