<svg width="17" height="17" viewBox="0 0 17 17" fill="none" xmlns="http://www.w3.org/2000/svg">
<g clip-path="url(#clip0_942_38450)">
<path d="M15.9375 2.30208V10.3594C15.9375 10.6881 15.8069 11.0034 15.5744 11.2359C15.342 11.4684 15.0267 11.599 14.6979 11.599H7.26042V12.8385C7.26051 12.9612 7.22422 13.0811 7.15612 13.1831C7.08802 13.2851 6.99119 13.3647 6.87788 13.4116C6.76456 13.4586 6.63987 13.4708 6.51958 13.4469C6.39928 13.4229 6.2888 13.3638 6.20212 13.277L4.34275 11.4177C4.28512 11.3601 4.23941 11.2918 4.20822 11.2165C4.17703 11.1413 4.16097 11.0606 4.16097 10.9792C4.16097 10.8977 4.17703 10.8171 4.20822 10.7418C4.23941 10.6666 4.28512 10.5982 4.34275 10.5407L6.20212 8.68129C6.2888 8.59451 6.39928 8.5354 6.51958 8.51145C6.63987 8.48749 6.76456 8.49977 6.87788 8.54672C6.99119 8.59367 7.08802 8.67318 7.15612 8.7752C7.22422 8.87721 7.26051 8.99714 7.26042 9.11979V10.3594H14.6979V2.30208H6.02083V2.92188C6.02083 3.08625 5.95553 3.2439 5.8393 3.36013C5.72307 3.47637 5.56542 3.54167 5.40104 3.54167C5.23666 3.54167 5.07902 3.47637 4.96278 3.36013C4.84655 3.2439 4.78125 3.08625 4.78125 2.92188V2.30208C4.78125 1.97333 4.91185 1.65803 5.14432 1.42557C5.37678 1.1931 5.69208 1.0625 6.02083 1.0625H14.6979C15.0267 1.0625 15.342 1.1931 15.5744 1.42557C15.8069 1.65803 15.9375 1.97333 15.9375 2.30208ZM11.599 13.4583C11.4346 13.4583 11.2769 13.5236 11.1607 13.6399C11.0445 13.7561 10.9792 13.9137 10.9792 14.0781V14.6979H2.30208V6.64062H9.73958V7.88021C9.73949 8.00286 9.77578 8.12279 9.84388 8.2248C9.91198 8.32682 10.0088 8.40633 10.1221 8.45328C10.2354 8.50023 10.3601 8.51251 10.4804 8.48855C10.6007 8.4646 10.7112 8.40549 10.7979 8.31871L12.6573 6.45934C12.7149 6.40177 12.7606 6.33342 12.7918 6.25818C12.823 6.18294 12.839 6.10228 12.839 6.02083C12.839 5.93938 12.823 5.85873 12.7918 5.78349C12.7606 5.70825 12.7149 5.63989 12.6573 5.58233L10.7979 3.72296C10.7112 3.63618 10.6007 3.57707 10.4804 3.55311C10.3601 3.52916 10.2354 3.54143 10.1221 3.58839C10.0088 3.63534 9.91198 3.71485 9.84388 3.81687C9.77578 3.91888 9.73949 4.0388 9.73958 4.16146V5.40104H2.30208C1.97333 5.40104 1.65803 5.53164 1.42557 5.76411C1.1931 5.99657 1.0625 6.31187 1.0625 6.64062V14.6979C1.0625 15.0267 1.1931 15.342 1.42557 15.5744C1.65803 15.8069 1.97333 15.9375 2.30208 15.9375H10.9792C11.3079 15.9375 11.6232 15.8069 11.8557 15.5744C12.0882 15.342 12.2188 15.0267 12.2188 14.6979V14.0781C12.2188 13.9137 12.1535 13.7561 12.0372 13.6399C11.921 13.5236 11.7633 13.4583 11.599 13.4583Z" fill="#8370FF"/>
</g>
<defs>
<clipPath id="clip0_942_38450">
<rect width="17" height="17" fill="white"/>
</clipPath>
</defs>
</svg>
