<svg xmlns="http://www.w3.org/2000/svg" width="157" height="20" viewBox="0 0 157 20">
    <g fill="#FFF" fill-rule="evenodd">
        <path d="M56.52 15.507l6.316-11.013 6.315 11.013H56.52zM45.523 4.494h12.63l-6.316 11.013-6.314-11.013zM1.562 0C.702 0 0 .708 0 1.573v5.874h41.43v5.107H0v5.874C0 19.292.703 20 1.562 20H72.32c.859 0 1.561-.708 1.561-1.572V1.573C73.882.708 73.18 0 72.321 0H1.56zM90.66 14.256V6.092h1.891v8.164h-1.89zm.938-11.948c.376 0 .673.12.905.354.232.235.345.54.345.904 0 .339-.113.63-.345.87-.232.243-.529.364-.905.364-.361 0-.658-.12-.89-.363a1.19 1.19 0 0 1-.36-.871c0-.363.12-.67.36-.904.232-.233.529-.354.89-.354zm7.642 10.02c.376-.258.641-.605.777-1.033l1.691.694c-.248.766-.729 1.38-1.426 1.84-.697.467-1.491.693-2.365.693-.785 0-1.49-.186-2.123-.557a3.712 3.712 0 0 1-1.467-1.54c-.352-.662-.529-1.412-.529-2.25 0-.848.177-1.606.537-2.268.353-.653.85-1.17 1.483-1.54.633-.371 1.354-.557 2.148-.557.921 0 1.707.234 2.372.694.665.467 1.106 1.073 1.322 1.823l-1.659.726a1.861 1.861 0 0 0-.745-1.04 2.214 2.214 0 0 0-1.306-.396c-.658 0-1.186.233-1.58.694-.4.46-.6 1.08-.6 1.863 0 .766.192 1.388.585 1.847.385.468.913.702 1.579.702.489 0 .93-.13 1.306-.395zm8.516-6.236h2.444l-2.709 3.106 2.637 5.058h-2.212l-1.771-3.533-1.443 1.653v1.88h-1.939V2.59h1.94v7.043l3.053-3.54zm10.45 3.654c0 .356-.04.702-.112 1.04h-5.842c.008.639.217 1.147.61 1.526.392.379.905.572 1.538.572.513 0 .97-.12 1.378-.37.409-.25.681-.573.834-.985l1.563.613c-.233.718-.69 1.29-1.38 1.735-.688.443-1.49.661-2.395.661-.802 0-1.507-.177-2.116-.54a3.514 3.514 0 0 1-1.418-1.525c-.337-.662-.505-1.428-.505-2.299s.168-1.638.505-2.291a3.672 3.672 0 0 1 1.402-1.524c.601-.363 1.299-.55 2.1-.55.753 0 1.418.162 2.003.493.577.33 1.026.798 1.355 1.396.32.597.48 1.282.48 2.048zm-5.938-.443h3.967c-.024-.557-.2-1.008-.545-1.347-.345-.34-.801-.509-1.354-.509-.57 0-1.042.17-1.419.509-.377.346-.593.79-.649 1.347zm9.653-2.993c.345-.202.753-.299 1.226-.299.2 0 .669.025.965.081V7.98a6.43 6.43 0 0 0-.965-.08c-.617 0-1.09.177-1.427.531-.336.363-.504.856-.504 1.493v4.332h-1.94V6.092h1.804l.095 1.04a1.68 1.68 0 0 1 .746-.822zm6.716-2.694v2.476h2.284v1.686h-2.284v3.67c0 .493.112.848.329 1.058.216.209.545.314.985.314.265 0 .586-.04.97-.121v1.54c-.569.17-1.098.251-1.595.251-.841 0-1.49-.25-1.947-.742-.457-.492-.681-1.17-.681-2.033V7.778h-1.883V6.092h1.883V3.833l1.94-.217zm-41.696 0v2.476h2.284v1.686H86.94v3.67c0 .493.112.848.328 1.058.216.209.545.314.986.314.264 0 .585-.04.97-.121v1.54c-.57.17-1.098.251-1.595.251-.842 0-1.49-.25-1.948-.742-.456-.492-.68-1.17-.68-2.033V7.778h-1.884V6.092H85V3.833l1.94-.217zm48.792 2.194c1.042 0 1.852.266 2.42.806.57.54.85 1.315.85 2.324v5.459h-1.69l-.105-1.152c-.232.396-.569.71-1.018.944-.448.234-.953.347-1.522.347-.81 0-1.467-.234-1.972-.694-.505-.46-.753-1.08-.753-1.855 0-.79.272-1.42.81-1.888.536-.467 1.242-.701 2.123-.701h2.235l.001-.807c0-.38-.128-.67-.385-.871-.256-.202-.617-.307-1.074-.307-.505 0-.913.121-1.226.363-.32.242-.513.573-.569.992l-1.635-.443c.136-.807.513-1.428 1.147-1.864.625-.436 1.41-.653 2.363-.653zm1.363 5.308v-.363h-1.803c-.481 0-.834.097-1.066.29-.232.194-.345.46-.345.799s.12.605.369.806c.248.202.585.299 1.026.299.553 0 1.002-.17 1.33-.508.328-.33.489-.775.489-1.323zm7.694-5.308c1.098 0 1.955.395 2.588 1.178.634.79.946 1.855.946 3.186 0 .895-.144 1.67-.44 2.331-.297.662-.714 1.162-1.243 1.509-.537.354-1.154.524-1.867.524-.505 0-.954-.097-1.346-.29a2.19 2.19 0 0 1-.93-.815v4.26h-1.94v-11.6h1.708l.095.991c.233-.395.554-.71.978-.935.425-.226.906-.339 1.45-.339zm1.05 6.34c.32-.476.48-1.145.48-1.992 0-.871-.167-1.533-.504-1.993-.345-.46-.818-.685-1.42-.685-.616 0-1.08.234-1.41.693-.328.46-.488 1.122-.488 1.985 0 .903.176 1.58.52 2.033.345.451.81.677 1.411.677.617 0 1.082-.242 1.41-.718zm8.732.364c.408-.251.68-.573.833-.985l1.563.613c-.232.718-.69 1.291-1.378 1.735-.69.443-1.49.66-2.397.66-.801 0-1.506-.176-2.115-.54a3.522 3.522 0 0 1-1.419-1.524c-.337-.662-.505-1.428-.505-2.3 0-.87.168-1.637.505-2.29a3.68 3.68 0 0 1 1.403-1.525c.6-.363 1.298-.548 2.1-.548.753 0 1.418.161 2.003.492.577.33 1.026.799 1.354 1.396.32.596.481 1.282.481 2.049 0 .354-.04.701-.112 1.04h-5.843c.009.637.217 1.146.61 1.525.392.379.905.572 1.538.572.513 0 .97-.12 1.379-.37zm-2.861-4.558c-.377.347-.593.79-.65 1.347h3.968c-.025-.557-.2-1.009-.545-1.347-.345-.34-.802-.508-1.355-.508-.569 0-1.041.169-1.418.508z"/>
    </g>
</svg>
