<svg width="17" height="17" viewBox="0 0 17 17" fill="none" xmlns="http://www.w3.org/2000/svg">
<path d="M13.2806 10.227C12.8053 10.2267 12.3458 10.3971 11.9856 10.7071L10.2843 9.3836C10.4208 9.10919 10.4917 8.80686 10.4915 8.5004C10.4913 8.42049 10.4865 8.34066 10.4769 8.26133L11.554 7.90274C11.7951 8.32163 12.1803 8.63857 12.6378 8.79451C13.0953 8.95045 13.5939 8.93475 14.0406 8.75034C14.4874 8.56593 14.8519 8.22539 15.0662 7.79216C15.2805 7.35893 15.33 6.86256 15.2055 6.39555C15.0809 5.92853 14.7909 5.52272 14.3893 5.25372C13.9877 4.98472 13.5021 4.87088 13.0228 4.93342C12.5435 4.99595 12.1033 5.23059 11.7842 5.59362C11.4651 5.95665 11.2889 6.42331 11.2884 6.90665C11.2885 6.98655 11.2934 7.06638 11.303 7.14571L10.2259 7.5043C10.0151 7.13715 9.69259 6.84694 9.3053 6.676C8.91802 6.50505 8.48625 6.46232 8.07297 6.55403L7.53243 5.33879C7.9343 5.0522 8.21547 4.62663 8.32146 4.14455C8.42744 3.66246 8.35068 3.1582 8.10606 2.72949C7.86143 2.30077 7.46637 1.97813 6.99742 1.8241C6.52848 1.67006 6.01904 1.6956 5.56786 1.89577C5.11667 2.09593 4.75585 2.45647 4.55534 2.9075C4.35482 3.35853 4.32888 3.86794 4.48255 4.33701C4.63621 4.80607 4.95854 5.20139 5.38706 5.44635C5.81559 5.69131 6.31979 5.76846 6.80196 5.66286L7.3425 6.87809C6.93861 7.16534 6.65666 7.59316 6.55198 8.0776C6.44731 8.56204 6.52746 9.06811 6.77672 9.49649L4.91336 11.1566C4.51712 10.86 4.02485 10.721 3.53197 10.7667C3.0391 10.8124 2.58074 11.0394 2.24574 11.4038C1.91074 11.7682 1.72297 12.244 1.71882 12.739C1.71467 13.2339 1.89445 13.7128 2.2233 14.0828C2.55215 14.4527 3.00664 14.6874 3.49868 14.7413C3.99072 14.7952 4.48525 14.6645 4.88641 14.3746C5.28757 14.0846 5.56678 13.656 5.66991 13.1719C5.77304 12.6878 5.69276 12.1826 5.44461 11.7543L7.30399 10.0941C7.66593 10.3662 8.10996 10.5064 8.56249 10.4915C9.01503 10.4767 9.4489 10.3077 9.79223 10.0125L11.4936 11.3359C11.3016 11.7241 11.2413 12.1642 11.3218 12.5897C11.4024 13.0151 11.6193 13.4027 11.9399 13.6939C12.2604 13.985 12.6671 14.1638 13.0983 14.2031C13.5295 14.2424 13.9618 14.1402 14.3298 13.9119C14.6977 13.6835 14.9812 13.3415 15.1374 12.9377C15.2935 12.5338 15.3139 12.0901 15.1953 11.6736C15.0767 11.2571 14.8257 10.8906 14.4802 10.6296C14.1347 10.3686 13.7136 10.2272 13.2806 10.227ZM13.2806 5.71133C13.517 5.71133 13.7481 5.78144 13.9446 5.91278C14.1412 6.04412 14.2944 6.2308 14.3849 6.44922C14.4753 6.66763 14.499 6.90797 14.4529 7.13984C14.4068 7.37171 14.2929 7.58469 14.1258 7.75186C13.9586 7.91903 13.7456 8.03287 13.5137 8.07899C13.2819 8.12511 13.0415 8.10144 12.8231 8.01097C12.6047 7.9205 12.418 7.76729 12.2867 7.57073C12.1553 7.37416 12.0852 7.14306 12.0852 6.90665C12.0852 6.58963 12.2112 6.2856 12.4353 6.06143C12.6595 5.83727 12.9635 5.71133 13.2806 5.71133ZM5.17899 3.71915C5.17899 3.48273 5.24909 3.25163 5.38043 3.05507C5.51178 2.8585 5.69846 2.70529 5.91687 2.61482C6.13529 2.52435 6.37563 2.50068 6.60749 2.5468C6.83936 2.59292 7.05235 2.70676 7.21951 2.87393C7.38668 3.0411 7.50052 3.25408 7.54665 3.48595C7.59277 3.71782 7.5691 3.95816 7.47862 4.17657C7.38815 4.39499 7.23495 4.58167 7.03838 4.71301C6.84181 4.84435 6.61071 4.91446 6.3743 4.91446C6.05728 4.91446 5.75325 4.78852 5.52909 4.56436C5.30492 4.34019 5.17899 4.03616 5.17899 3.71915ZM3.71805 13.9457C3.48164 13.9457 3.25054 13.8756 3.05397 13.7443C2.8574 13.6129 2.7042 13.4262 2.61373 13.2078C2.52326 12.9894 2.49958 12.7491 2.54571 12.5172C2.59183 12.2853 2.70567 12.0723 2.87284 11.9052C3.04 11.738 3.25299 11.6242 3.48486 11.5781C3.71672 11.5319 3.95706 11.5556 4.17548 11.6461C4.39389 11.7365 4.58057 11.8897 4.71192 12.0863C4.84326 12.2829 4.91336 12.514 4.91336 12.7504C4.91336 13.0674 4.78743 13.3714 4.56326 13.5956C4.3391 13.8198 4.03507 13.9457 3.71805 13.9457ZM8.4993 9.69571C8.26289 9.69571 8.03179 9.6256 7.83522 9.49426C7.63865 9.36292 7.48545 9.17624 7.39498 8.95782C7.30451 8.73941 7.28083 8.49907 7.32696 8.2672C7.37308 8.03533 7.48692 7.82235 7.65409 7.65518C7.82125 7.48801 8.03424 7.37417 8.26611 7.32805C8.49797 7.28193 8.73831 7.3056 8.95673 7.39607C9.17514 7.48654 9.36182 7.63975 9.49317 7.83632C9.62451 8.03288 9.69461 8.26398 9.69461 8.5004C9.69461 8.81741 9.56868 9.12144 9.34451 9.34561C9.12035 9.56977 8.81632 9.69571 8.4993 9.69571ZM13.2806 13.4145C13.0441 13.4145 12.813 13.3444 12.6165 13.213C12.4199 13.0817 12.2667 12.895 12.1762 12.6766C12.0858 12.4582 12.0621 12.2178 12.1082 11.986C12.1543 11.7541 12.2682 11.5411 12.4353 11.3739C12.6025 11.2068 12.8155 11.0929 13.0474 11.0468C13.2792 11.0007 13.5196 11.0243 13.738 11.1148C13.9564 11.2053 14.1431 11.3585 14.2744 11.5551C14.4058 11.7516 14.4759 11.9827 14.4759 12.2191C14.4759 12.5362 14.3499 12.8402 14.1258 13.0644C13.9016 13.2885 13.5976 13.4145 13.2806 13.4145Z" fill="#624BFF"/>
</svg>
