<svg width="17" height="17" viewBox="0 0 17 17" fill="none" xmlns="http://www.w3.org/2000/svg">
<path d="M15.2734 13.8125C15.2734 13.9182 15.2315 14.0195 15.1567 14.0942C15.082 14.169 14.9807 14.2109 14.875 14.2109H2.125C2.01933 14.2109 1.91798 14.169 1.84326 14.0942C1.76854 14.0195 1.72656 13.9182 1.72656 13.8125V3.1875C1.72656 3.08183 1.76854 2.98048 1.84326 2.90576C1.91798 2.83104 2.01933 2.78906 2.125 2.78906C2.23067 2.78906 2.33202 2.83104 2.40674 2.90576C2.48146 2.98048 2.52344 3.08183 2.52344 3.1875V9.74711L6.1127 6.60609C6.18148 6.546 6.26881 6.51136 6.36009 6.50797C6.45136 6.50459 6.54102 6.53267 6.61406 6.5875L10.6057 9.58109L14.6127 6.07484C14.6929 6.01305 14.7936 5.98412 14.8944 5.99393C14.9952 6.00374 15.0885 6.05155 15.1553 6.12765C15.2221 6.20375 15.2574 6.30243 15.2541 6.40363C15.2507 6.50483 15.209 6.60097 15.1373 6.6725L10.8873 10.3912C10.8185 10.4513 10.7312 10.486 10.6399 10.4894C10.5486 10.4928 10.459 10.4647 10.3859 10.4098L6.39426 7.41891L2.52344 10.8056V13.4141H14.875C14.9807 13.4141 15.082 13.456 15.1567 13.5308C15.2315 13.6055 15.2734 13.7068 15.2734 13.8125Z" fill="#19AF55"/>
</svg>
