<svg width="17" height="17" viewBox="0 0 17 17" fill="none" xmlns="http://www.w3.org/2000/svg">
<path d="M9.11159 1.72988C8.9832 1.71874 8.85389 1.73442 8.73188 1.77592C8.60987 1.81741 8.49782 1.88383 8.40284 1.97094C8.30786 2.05804 8.23203 2.16395 8.18017 2.28193C8.1283 2.3999 8.10153 2.52737 8.10155 2.65625V5.35699C8.09983 5.57608 8.17633 5.78861 8.31729 5.95634C8.45824 6.12408 8.65442 6.23603 8.87053 6.27207C9.29043 6.34189 9.68204 6.52899 10.0002 6.81179C10.3183 7.09459 10.5501 7.46156 10.6686 7.87038C10.7872 8.2792 10.7878 8.71321 10.6703 9.12234C10.5529 9.53148 10.3221 9.89908 10.0048 10.1827C9.68737 10.4664 9.29627 10.6546 8.87656 10.7255C8.45685 10.7965 8.02563 10.7473 7.63264 10.5838C7.23966 10.4202 6.90091 10.1489 6.65547 9.80114C6.41003 9.45336 6.26791 9.04328 6.24549 8.6182C6.21628 8.0418 6.33647 7.56101 6.60276 7.18848C6.73004 7.01067 6.7899 6.79339 6.77165 6.57549C6.7534 6.35759 6.65823 6.15329 6.50315 5.99914L4.66702 4.12383C4.57536 4.03234 4.4656 3.96101 4.34477 3.91441C4.22394 3.86781 4.09471 3.84697 3.96536 3.85322C3.83601 3.85948 3.70939 3.89268 3.59362 3.95072C3.47785 4.00875 3.37548 4.09033 3.29307 4.19023C2.20744 5.49144 1.65111 7.15347 1.73465 8.84603C1.81819 10.5386 2.53548 12.1378 3.74397 13.3257C5.00901 14.5789 6.71934 15.2793 8.49999 15.2734H8.59694C10.3583 15.2432 12.0391 14.53 13.2847 13.2843C14.5303 12.0385 15.2434 10.3577 15.2734 8.59629C15.3219 5.06015 12.6172 2.04398 9.11159 1.72988ZM3.90534 4.69758C3.91743 4.68304 3.93241 4.67116 3.94933 4.6627C3.96624 4.65425 3.98473 4.64939 4.00362 4.64844H4.0096C4.02639 4.64802 4.04309 4.65098 4.05872 4.65714C4.07435 4.6633 4.08858 4.67253 4.10057 4.6843L5.93671 6.55961C5.95807 6.58101 5.9715 6.60906 5.97476 6.63913C5.97802 6.6692 5.97092 6.69947 5.95464 6.72496C5.66993 7.13145 5.49933 7.6068 5.46057 8.10156H2.5387C2.61904 6.85007 3.09797 5.65718 3.90534 4.69758ZM2.53803 8.89844H5.47186C5.55952 9.5652 5.86476 10.1844 6.34022 10.66C6.81569 11.1356 7.43481 11.441 8.10155 11.5288V14.462C6.65752 14.3662 5.2974 13.7492 4.27407 12.7259C3.25074 11.7026 2.63383 10.3425 2.53803 8.89844ZM12.7208 12.7208C11.7012 13.7474 10.3421 14.3667 8.89842 14.4626V11.5295C9.52966 11.4477 10.119 11.1688 10.5825 10.7326C10.9993 10.3435 11.2989 9.8455 11.4473 9.29497C11.5958 8.74445 11.5872 8.16336 11.4225 7.61746C11.2579 7.07157 10.9437 6.58265 10.5156 6.20605C10.0874 5.82945 9.56246 5.58019 9.00003 5.48648C8.97058 5.48026 8.94427 5.46388 8.92569 5.4402C8.90712 5.41653 8.89746 5.38707 8.89842 5.35699V2.65625C8.89828 2.63749 8.90211 2.61892 8.90967 2.60175C8.91722 2.58458 8.92833 2.56921 8.94225 2.55664C8.95537 2.54449 8.97091 2.53525 8.98784 2.52953C9.00478 2.52381 9.02274 2.52173 9.04053 2.52344C12.1317 2.80035 14.5197 5.46258 14.4759 8.58433C14.4551 10.1398 13.8249 11.625 12.7208 12.7208Z" fill="#F57011"/>
</svg>
