<svg width="17" height="15" viewBox="0 0 17 15" fill="none" xmlns="http://www.w3.org/2000/svg">
<path d="M15.6923 0.59375H1.30769C0.960871 0.59375 0.628254 0.726045 0.383014 0.961531C0.137774 1.19702 0 1.5164 0 1.84943V13.1506C0 13.4836 0.137774 13.803 0.383014 14.0385C0.628254 14.274 0.960871 14.4063 1.30769 14.4063H15.6923C16.0391 14.4063 16.3717 14.274 16.617 14.0385C16.8622 13.803 17 13.4836 17 13.1506V1.84943C17 1.5164 16.8622 1.19702 16.617 0.961531C16.3717 0.726045 16.0391 0.59375 15.6923 0.59375ZM13.4038 3.10511C13.5978 3.10511 13.7874 3.16035 13.9487 3.26383C14.11 3.36731 14.2357 3.51439 14.31 3.68648C14.3842 3.85856 14.4036 4.04792 14.3658 4.2306C14.3279 4.41329 14.2345 4.58109 14.0974 4.7128C13.9602 4.84451 13.7854 4.9342 13.5952 4.97054C13.4049 5.00688 13.2077 4.98823 13.0285 4.91695C12.8493 4.84567 12.6961 4.72496 12.5884 4.57009C12.4806 4.41522 12.4231 4.23314 12.4231 4.04688C12.4231 3.7971 12.5264 3.55756 12.7103 3.38095C12.8943 3.20433 13.1437 3.10511 13.4038 3.10511ZM13.4038 7.5C13.5978 7.5 13.7874 7.55523 13.9487 7.65872C14.11 7.7622 14.2357 7.90928 14.31 8.08137C14.3842 8.25345 14.4036 8.44281 14.3658 8.62549C14.3279 8.80817 14.2345 8.97598 14.0974 9.10769C13.9602 9.2394 13.7854 9.32909 13.5952 9.36543C13.4049 9.40177 13.2077 9.38311 13.0285 9.31184C12.8493 9.24056 12.6961 9.11985 12.5884 8.96498C12.4806 8.8101 12.4231 8.62802 12.4231 8.44176C12.4231 8.19199 12.5264 7.95245 12.7103 7.77584C12.8943 7.59922 13.1437 7.5 13.4038 7.5ZM10.1346 6.24432C10.3286 6.24432 10.5182 6.29955 10.6795 6.40303C10.8408 6.50652 10.9665 6.6536 11.0407 6.82568C11.115 6.99777 11.1344 7.18712 11.0965 7.36981C11.0587 7.55249 10.9653 7.7203 10.8281 7.85201C10.691 7.98371 10.5162 8.07341 10.326 8.10975C10.1357 8.14608 9.9385 8.12743 9.75929 8.05615C9.58008 7.98487 9.4269 7.86417 9.31914 7.70929C9.21137 7.55442 9.15385 7.37234 9.15385 7.18608C9.15385 6.93631 9.25718 6.69677 9.44111 6.52015C9.62504 6.34354 9.8745 6.24432 10.1346 6.24432ZM8.17308 3.10511C8.36705 3.10511 8.55668 3.16035 8.71796 3.26383C8.87925 3.36731 9.00496 3.51439 9.07919 3.68648C9.15342 3.85856 9.17284 4.04792 9.135 4.2306C9.09716 4.41329 9.00375 4.58109 8.86658 4.7128C8.72942 4.84451 8.55467 4.9342 8.36442 4.97054C8.17416 5.00688 7.97696 4.98823 7.79775 4.91695C7.61854 4.84567 7.46536 4.72496 7.3576 4.57009C7.24983 4.41522 7.19231 4.23314 7.19231 4.04688C7.19231 3.7971 7.29564 3.55756 7.47957 3.38095C7.6635 3.20433 7.91296 3.10511 8.17308 3.10511ZM6.21154 7.5C6.40552 7.5 6.59514 7.55523 6.75642 7.65872C6.91771 7.7622 7.04342 7.90928 7.11765 8.08137C7.19188 8.25345 7.21131 8.44281 7.17346 8.62549C7.13562 8.80817 7.04221 8.97598 6.90505 9.10769C6.76788 9.2394 6.59313 9.32909 6.40288 9.36543C6.21263 9.40177 6.01543 9.38311 5.83621 9.31184C5.657 9.24056 5.50383 9.11985 5.39606 8.96498C5.28829 8.8101 5.23077 8.62802 5.23077 8.44176C5.23077 8.19199 5.3341 7.95245 5.51803 7.77584C5.70196 7.59922 5.95142 7.5 6.21154 7.5ZM14.3846 12.5227H2.61538C2.44197 12.5227 2.27567 12.4566 2.15305 12.3388C2.03043 12.2211 1.96154 12.0614 1.96154 11.8949V3.10511C1.96154 2.9386 2.03043 2.77891 2.15305 2.66116C2.27567 2.54342 2.44197 2.47727 2.61538 2.47727C2.7888 2.47727 2.9551 2.54342 3.07772 2.66116C3.20034 2.77891 3.26923 2.9386 3.26923 3.10511V11.267H14.3846C14.558 11.267 14.7243 11.3332 14.847 11.4509C14.9696 11.5687 15.0385 11.7284 15.0385 11.8949C15.0385 12.0614 14.9696 12.2211 14.847 12.3388C14.7243 12.4566 14.558 12.5227 14.3846 12.5227Z" fill="#19AF55"/>
</svg>
