<svg width="17" height="17" viewBox="0 0 17 17" fill="none" xmlns="http://www.w3.org/2000/svg">
<g clip-path="url(#clip0_942_38475)">
<path d="M16.413 14.2619H15.299V6.25116C15.299 5.94765 15.1796 5.65658 14.9671 5.44196C14.7546 5.22735 14.4664 5.10678 14.1658 5.10678H11.0496C10.9745 5.10678 10.9024 5.13692 10.8493 5.19057C10.7962 5.24423 10.7663 5.317 10.7663 5.39288V14.2619H9.63317V1.70295C9.63504 1.5247 9.59674 1.34835 9.52116 1.18726C9.44557 1.02617 9.33469 0.884552 9.1969 0.773134C9.00908 0.625249 8.77989 0.540886 8.54189 0.532027C8.3039 0.523168 8.06918 0.590263 7.87109 0.723783L2.20526 4.53459C2.04983 4.63931 1.92245 4.78123 1.83447 4.9477C1.74649 5.11417 1.70064 5.30002 1.701 5.48872V14.2619H0.586951C0.440536 14.2597 0.298733 14.3136 0.190068 14.4127C0.0814037 14.5118 0.0139387 14.6488 0.00124489 14.7961C-0.00390106 14.8744 0.00694294 14.9529 0.0331032 15.0268C0.0592636 15.1006 0.100181 15.1683 0.153315 15.2255C0.206449 15.2827 0.270665 15.3283 0.341972 15.3594C0.41328 15.3905 0.490157 15.4064 0.567829 15.4062H16.4322C16.5098 15.4064 16.5867 15.3905 16.658 15.3594C16.7293 15.3283 16.7936 15.2827 16.8467 15.2255C16.8998 15.1683 16.9407 15.1006 16.9669 15.0268C16.9931 14.9529 17.0039 14.8744 16.9988 14.7961C16.9861 14.6488 16.9186 14.5118 16.8099 14.4127C16.7013 14.3136 16.5595 14.2597 16.413 14.2619ZM4.81721 12.5453C4.81738 12.6237 4.80158 12.7014 4.77078 12.7734C4.73999 12.8454 4.69487 12.9102 4.63821 12.9639C4.58156 13.0176 4.51459 13.0589 4.44145 13.0853C4.36832 13.1117 4.29059 13.1227 4.21309 13.1175C4.06708 13.1046 3.93132 13.0364 3.83315 12.9265C3.73498 12.8166 3.6817 12.6732 3.68404 12.5253V11.4202C3.68204 11.2724 3.73546 11.1293 3.83358 11.0196C3.9317 10.9099 4.06727 10.8417 4.21309 10.8287C4.29059 10.8235 4.36832 10.8345 4.44145 10.8609C4.51459 10.8873 4.58156 10.9286 4.63821 10.9823C4.69487 11.0359 4.73999 11.1008 4.77078 11.1728C4.80158 11.2448 4.81738 11.3225 4.81721 11.4009V12.5453ZM4.81721 8.53994C4.81738 8.61838 4.80158 8.69601 4.77078 8.76803C4.73999 8.84004 4.69487 8.90489 4.63821 8.95855C4.58156 9.01221 4.51459 9.05354 4.44145 9.07996C4.36832 9.10637 4.29059 9.11733 4.21309 9.11213C4.06715 9.09914 3.93148 9.03085 3.83334 8.921C3.7352 8.81114 3.68186 8.66785 3.68404 8.51991V7.41486C3.68204 7.26704 3.73546 7.12393 3.83358 7.01423C3.9317 6.90452 4.06727 6.83634 4.21309 6.82336C4.29059 6.81816 4.36832 6.82911 4.44145 6.85553C4.51459 6.88195 4.58156 6.92327 4.63821 6.97693C4.69487 7.03059 4.73999 7.09544 4.77078 7.16746C4.80158 7.23947 4.81738 7.31711 4.81721 7.39555V8.53994ZM7.65013 12.5453C7.6503 12.6237 7.63449 12.7014 7.6037 12.7734C7.57291 12.8454 7.52779 12.9102 7.47113 12.9639C7.41448 13.0176 7.3475 13.0589 7.27437 13.0853C7.20124 13.1117 7.12351 13.1227 7.04601 13.1175C6.90025 13.1047 6.76469 13.0366 6.66655 12.927C6.56842 12.8175 6.51498 12.6744 6.51696 12.5267V11.4202C6.51514 11.2725 6.56864 11.1296 6.66675 11.02C6.76485 10.9105 6.90031 10.8424 7.04601 10.8294C7.12351 10.8242 7.20124 10.8352 7.27437 10.8616C7.3475 10.888 7.41448 10.9293 7.47113 10.983C7.52779 11.0367 7.57291 11.1015 7.6037 11.1735C7.63449 11.2455 7.6503 11.3232 7.65013 11.4016V12.5453ZM7.65013 8.53994C7.6503 8.61838 7.63449 8.69601 7.6037 8.76803C7.57291 8.84004 7.52779 8.90489 7.47113 8.95855C7.41448 9.01221 7.3475 9.05354 7.27437 9.07996C7.20124 9.10637 7.12351 9.11733 7.04601 9.11213C6.90031 9.09915 6.76485 9.03107 6.66675 8.92152C6.56864 8.81197 6.51514 8.66903 6.51696 8.52134V7.41486C6.51514 7.26717 6.56864 7.12423 6.66675 7.01468C6.76485 6.90513 6.90031 6.83705 7.04601 6.82407C7.12351 6.81888 7.20124 6.82983 7.27437 6.85625C7.3475 6.88267 7.41448 6.92399 7.47113 6.97765C7.52779 7.03131 7.57291 7.09616 7.6037 7.16817C7.63449 7.24019 7.6503 7.31783 7.65013 7.39627V8.53994Z" fill="#FA6D92"/>
</g>
<defs>
<clipPath id="clip0_942_38475">
<rect width="17" height="17" fill="white"/>
</clipPath>
</defs>
</svg>
