<svg width="20" height="20" viewBox="0 0 20 20" fill="none" xmlns="http://www.w3.org/2000/svg">
<g clip-path="url(#clip0_2151_24686)">
<path d="M9.35663 17.0268C9.32283 17.162 9.24481 17.2821 9.13496 17.3679C9.02512 17.4536 8.88975 17.5002 8.75038 17.5003C8.69772 17.5005 8.64523 17.4942 8.59413 17.4815L6.09413 16.8565C6.02453 16.839 5.95846 16.8097 5.89882 16.7698L4.02381 15.5198C3.88592 15.4278 3.79022 15.2848 3.75777 15.1222C3.72532 14.9597 3.75877 14.7909 3.85077 14.653C3.94276 14.5151 4.08577 14.4194 4.24833 14.387C4.41088 14.3545 4.57967 14.388 4.71757 14.48L6.50194 15.6698L8.89725 16.269C8.97728 16.2884 9.05269 16.3234 9.11914 16.3721C9.18559 16.4207 9.24178 16.482 9.28446 16.5524C9.32715 16.6229 9.3555 16.701 9.36789 16.7824C9.38027 16.8638 9.37645 16.9469 9.35663 17.0268ZM19.723 9.49089C19.6718 9.64666 19.5901 9.79072 19.4828 9.91476C19.3756 10.0388 19.2448 10.1403 19.098 10.2136L17.248 11.1386L16.0699 12.3175L12.9449 15.4425C12.8685 15.5188 12.7737 15.574 12.6697 15.6027C12.5656 15.6315 12.4559 15.6328 12.3512 15.6065L7.35116 14.3565C7.27512 14.3374 7.20332 14.3043 7.13944 14.2589L2.80194 11.162L0.905065 10.2136C0.608608 10.0654 0.383144 9.80548 0.278247 9.49109C0.17335 9.17669 0.197609 8.8335 0.34569 8.53699L2.2871 4.65496C2.43529 4.3585 2.69516 4.13304 3.00956 4.02814C3.32396 3.92324 3.66714 3.9475 3.96366 4.09558L5.6871 4.95496L9.82772 3.77214C9.94005 3.74001 10.0591 3.74001 10.1715 3.77214L14.3121 4.95496L16.0355 4.09558C16.3321 3.9475 16.6752 3.92324 16.9896 4.02814C17.304 4.13304 17.5639 4.3585 17.7121 4.65496L19.6535 8.53699C19.7276 8.68351 19.7718 8.84325 19.7838 9.00698C19.7957 9.17071 19.7751 9.33519 19.723 9.49089ZM14.6879 11.9268L12.523 10.1932C10.9965 11.4432 9.05819 11.6081 7.45194 10.5839C7.29394 10.4834 7.16054 10.3486 7.06159 10.1897C6.96264 10.0307 6.90068 9.85148 6.88028 9.66534C6.85988 9.47919 6.88157 9.29084 6.94373 9.1142C7.0059 8.93756 7.10696 8.77714 7.23944 8.6448C7.24132 8.64253 7.24341 8.64043 7.24569 8.63855L10.7504 5.23933L10.0004 5.02527L6.06132 6.15105L3.92303 10.4268L7.76678 13.1729L12.309 14.3081L14.6879 11.9268ZM16.1129 10.5018L13.9894 6.25027H11.5035L8.12538 9.53152C9.11444 10.1636 10.6652 10.3378 12.0566 8.93543C12.1653 8.82589 12.3106 8.76043 12.4647 8.75163C12.6187 8.74283 12.7706 8.79132 12.891 8.88777L15.5793 11.0417L16.1129 10.5018Z" fill="#535B62"/>
</g>
<defs>
<clipPath id="clip0_2151_24686">
<rect width="20" height="20" fill="white"/>
</clipPath>
</defs>
</svg>
