<svg width="20" height="20" viewBox="0 0 20 20" fill="none" xmlns="http://www.w3.org/2000/svg">
<g clip-path="url(#clip0_2151_24364)">
<path d="M0.000244141 3.88887C0.000244141 3.68628 0.0813019 3.49198 0.225585 3.34873C0.369869 3.20548 0.565559 3.125 0.769606 3.125H17.6956C17.8996 3.125 18.0953 3.20548 18.2396 3.34873C18.3839 3.49198 18.4649 3.68628 18.4649 3.88887C18.4649 4.09145 18.3839 4.28575 18.2396 4.429C18.0953 4.57225 17.8996 4.65273 17.6956 4.65273H0.769606C0.565559 4.65273 0.369869 4.57225 0.225585 4.429C0.0813019 4.28575 0.000244141 4.09145 0.000244141 3.88887ZM0.769606 10.7637H7.69387C7.89791 10.7637 8.09361 10.6832 8.23789 10.5399C8.38217 10.3967 8.46323 10.2024 8.46323 9.99979C8.46323 9.7972 8.38217 9.60291 8.23789 9.45965C8.09361 9.3164 7.89791 9.23592 7.69387 9.23592H0.769606C0.565559 9.23592 0.369869 9.3164 0.225585 9.45965C0.0813019 9.60291 0.000244141 9.7972 0.000244141 9.99979C0.000244141 10.2024 0.0813019 10.3967 0.225585 10.5399C0.369869 10.6832 0.565559 10.7637 0.769606 10.7637ZM9.23259 15.3468H0.769606C0.565559 15.3468 0.369869 15.4273 0.225585 15.5706C0.0813019 15.7138 0.000244141 15.9081 0.000244141 16.1107C0.000244141 16.3133 0.0813019 16.5076 0.225585 16.6508C0.369869 16.7941 0.565559 16.8746 0.769606 16.8746H9.23259C9.43664 16.8746 9.63233 16.7941 9.77661 16.6508C9.9209 16.5076 10.002 16.3133 10.002 16.1107C10.002 15.9081 9.9209 15.7138 9.77661 15.5706C9.63233 15.4273 9.43664 15.3468 9.23259 15.3468ZM19.7786 15.5703L17.8264 13.6281C18.3512 12.8383 18.5621 11.8832 18.4181 10.9479C18.2741 10.0125 17.7856 9.16352 17.0471 8.56539C16.3087 7.96726 15.3729 7.66258 14.4211 7.71039C13.4693 7.7582 12.5692 8.15509 11.8953 8.82417C11.2214 9.49324 10.8217 10.3869 10.7735 11.3319C10.7254 12.2769 11.0322 13.206 11.6347 13.9392C12.2371 14.6723 13.0922 15.1574 14.0343 15.3003C14.9764 15.4433 15.9384 15.2339 16.7339 14.7128L18.6861 16.6511C18.8305 16.7945 19.0263 16.875 19.2305 16.875C19.4346 16.875 19.6304 16.7945 19.7748 16.6511C19.9191 16.5078 20.0002 16.3134 20.0002 16.1107C20.0002 15.908 19.9191 15.7136 19.7748 15.5703H19.7786Z" fill="#535B62"/>
</g>
<defs>
<clipPath id="clip0_2151_24364">
<rect width="20" height="20" fill="white" transform="translate(0.000244141)"/>
</clipPath>
</defs>
</svg>
