<svg width="17" height="17" viewBox="0 0 17 17" fill="none" xmlns="http://www.w3.org/2000/svg">
<g id="Compass" clip-path="url(#clip0_942_50936)">
<path id="Vector" d="M8.5 0C6.81886 0 5.17547 0.498516 3.77766 1.43251C2.37984 2.3665 1.29037 3.69402 0.647028 5.24719C0.00368292 6.80036 -0.164645 8.50943 0.163329 10.1583C0.491303 11.8071 1.30085 13.3217 2.4896 14.5104C3.67834 15.6992 5.1929 16.5087 6.84173 16.8367C8.49057 17.1646 10.1996 16.9963 11.7528 16.353C13.306 15.7096 14.6335 14.6202 15.5675 13.2223C16.5015 11.8245 17 10.1811 17 8.5C16.9976 6.24639 16.1013 4.08576 14.5078 2.49222C12.9142 0.898677 10.7536 0.00237985 8.5 0ZM12.7157 4.72322L10.1003 9.95399C10.0683 10.017 10.017 10.0683 9.95399 10.1003L4.72322 12.7157C4.66182 12.7465 4.59225 12.7572 4.5244 12.7463C4.45655 12.7354 4.39388 12.7033 4.34529 12.6547C4.29669 12.6061 4.26465 12.5434 4.2537 12.4756C4.24276 12.4078 4.25348 12.3382 4.28433 12.2768L6.89971 7.04601C6.93174 6.98296 6.98297 6.93173 7.04601 6.89971L12.2768 4.28433C12.3382 4.25347 12.4078 4.24276 12.4756 4.2537C12.5435 4.26464 12.6061 4.29669 12.6547 4.34528C12.7033 4.39388 12.7354 4.45655 12.7463 4.5244C12.7572 4.59224 12.7465 4.66181 12.7157 4.72322Z" fill="#E26573"/>
</g>
<defs>
<clipPath id="clip0_942_50936">
<rect width="17" height="17" fill="white"/>
</clipPath>
</defs>
</svg>
