<svg width="17" height="17" viewBox="0 0 17 17" fill="none" xmlns="http://www.w3.org/2000/svg">
<g clip-path="url(#clip0_942_38470)">
<path d="M16.4333 13.6739H15.8667V6.66769C15.8667 6.47002 15.8206 6.27541 15.7327 6.10111C15.6447 5.92682 15.5175 5.77823 15.3623 5.66852L9.129 1.26422C8.94283 1.13269 8.7241 1.0625 8.50035 1.0625C8.27661 1.0625 8.05787 1.13269 7.87171 1.26422L1.63837 5.66852C1.48309 5.77814 1.35575 5.9267 1.26764 6.101C1.17954 6.2753 1.13341 6.46996 1.13333 6.66769V13.6739H0.566667C0.416377 13.6739 0.272243 13.7372 0.165973 13.8498C0.0597022 13.9624 0 14.1152 0 14.2744C0 14.4337 0.0597022 14.5865 0.165973 14.6991C0.272243 14.8117 0.416377 14.875 0.566667 14.875H16.4333C16.5836 14.875 16.7278 14.8117 16.834 14.6991C16.9403 14.5865 17 14.4337 17 14.2744C17 14.1152 16.9403 13.9624 16.834 13.8498C16.7278 13.7372 16.5836 13.6739 16.4333 13.6739ZM9.06667 8.86947H13.0333V10.6711H9.06667V8.86947ZM7.93333 10.6711H3.96667V8.86947H7.93333V10.6711ZM3.96667 11.8722H7.93333V13.6739H3.96667V11.8722ZM9.06667 11.8722H13.0333V13.6739H9.06667V11.8722Z" fill="#47B3FF"/>
</g>
<defs>
<clipPath id="clip0_942_38470">
<rect width="17" height="17" fill="white"/>
</clipPath>
</defs>
</svg>
