<svg width="17" height="17" viewBox="0 0 17 17" fill="none" xmlns="http://www.w3.org/2000/svg">
<g id="FireSimple" clip-path="url(#clip0_942_38751)">
<path id="Vector" d="M10.2234 0.145476C10.145 0.0809437 10.052 0.0360191 9.95231 0.0144891C9.85264 -0.00704088 9.7492 -0.00454513 9.6507 0.0217659C9.55221 0.0480769 9.46156 0.0974319 9.38638 0.16567C9.3112 0.233908 9.25371 0.319029 9.21875 0.413857L7.46875 5.16838L5.54693 3.32592C5.48239 3.26398 5.40532 3.21628 5.32079 3.18595C5.23626 3.15563 5.1462 3.14338 5.05654 3.14999C4.96688 3.15661 4.87965 3.18195 4.8006 3.22435C4.72156 3.26675 4.65249 3.32524 4.59795 3.39596C2.875 5.62959 2 7.8766 2 10.074C2 11.9109 2.7375 13.6726 4.05025 14.9714C5.36301 16.2703 7.14348 17 9 17C10.8565 17 12.637 16.2703 13.9497 14.9714C15.2625 13.6726 16 11.9109 16 10.074C16 5.39505 11.9599 1.57396 10.2234 0.145476Z" fill="#F9B72F"/>
</g>
<defs>
<clipPath id="clip0_942_38751">
<rect width="17" height="17" fill="white"/>
</clipPath>
</defs>
</svg>
