<svg width="17" height="17" viewBox="0 0 17 17" fill="none" xmlns="http://www.w3.org/2000/svg">
<g clip-path="url(#clip0_942_38588)">
<path d="M8.5 0C6.81886 0 5.17547 0.498516 3.77766 1.43251C2.37984 2.3665 1.29037 3.69402 0.647028 5.24719C0.00368292 6.80036 -0.164645 8.50943 0.163329 10.1583C0.491303 11.8071 1.30085 13.3217 2.4896 14.5104C3.67834 15.6992 5.1929 16.5087 6.84173 16.8367C8.49057 17.1646 10.1996 16.9963 11.7528 16.353C13.306 15.7096 14.6335 14.6202 15.5675 13.2223C16.5015 11.8245 17 10.1811 17 8.5C16.9976 6.24639 16.1013 4.08576 14.5078 2.49222C12.9142 0.898677 10.7536 0.00237985 8.5 0ZM15.6621 7.84615H12.4067C12.2915 5.5201 11.5674 3.31255 10.3537 1.55288C11.7751 1.93451 13.0457 2.7421 13.9947 3.86713C14.9436 4.99215 15.5255 6.38069 15.6621 7.84615ZM5.90342 9.15384H11.0966C10.9593 11.6769 10.0341 14.0266 8.5 15.6833C6.96918 14.0266 6.04072 11.6769 5.90342 9.15384ZM5.90342 7.84615C6.04072 5.32312 6.96592 2.97336 8.5 1.31668C10.0308 2.97336 10.9593 5.32149 11.0966 7.84615H5.90342ZM10.3537 15.4471C11.5674 13.685 12.2915 11.4774 12.4067 9.15384H15.6621C15.5255 10.6193 14.9436 12.0078 13.9947 13.1329C13.0457 14.2579 11.7751 15.0655 10.3537 15.4471Z" fill="#37BBE6"/>
</g>
<defs>
<clipPath id="clip0_942_38588">
<rect width="17" height="17" fill="white"/>
</clipPath>
</defs>
</svg>
