<svg width="36" height="36" viewBox="0 0 36 36" fill="none" xmlns="http://www.w3.org/2000/svg">
<g clip-path="url(#clip0_2199_26243)">
<path fill-rule="evenodd" clip-rule="evenodd" d="M18 36C8.05888 36 0 27.9411 0 18C0 8.05888 8.05888 0 18 0C27.9411 0 36 8.05888 36 18C36 27.9411 27.9411 36 18 36ZM18 33.75C9.30152 33.75 2.25 26.6985 2.25 18C2.25 9.30152 9.30152 2.25 18 2.25C26.6985 2.25 33.75 9.30152 33.75 18C33.75 26.6985 26.6985 33.75 18 33.75Z" fill="#F57011"/>
<mask id="mask0_2199_26243" style="mask-type:alpha" maskUnits="userSpaceOnUse" x="2" y="2" width="32" height="32">
<rect x="2.25" y="2.25" width="31.5" height="31.5" rx="15.75" fill="#D9D9D9"/>
</mask>
<g mask="url(#mask0_2199_26243)">
<rect x="18" y="2.25" width="15.75" height="15.75" fill="#F57011"/>
</g>
</g>
<defs>
<clipPath id="clip0_2199_26243">
<rect width="36" height="36" fill="white"/>
</clipPath>
</defs>
</svg>
