<svg width="20" height="20" viewBox="0 0 20 20" fill="none" xmlns="http://www.w3.org/2000/svg">
<g id="Plus(2)/True">
<g id="Vector">
<path fill-rule="evenodd" clip-rule="evenodd" d="M9.99999 2.29175C5.74279 2.29175 2.29166 5.74289 2.29166 10.0001C2.29166 14.2573 5.74279 17.7084 9.99999 17.7084C14.2572 17.7084 17.7083 14.2573 17.7083 10.0001C17.7083 5.74289 14.2572 2.29175 9.99999 2.29175ZM1.04166 10.0001C1.04166 5.05253 5.05244 1.04175 9.99999 1.04175C14.9475 1.04175 18.9583 5.05253 18.9583 10.0001C18.9583 14.9476 14.9475 18.9584 9.99999 18.9584C5.05244 18.9584 1.04166 14.9476 1.04166 10.0001Z" fill="#0088EA"/>
<path fill-rule="evenodd" clip-rule="evenodd" d="M6.04166 10.0001C6.04166 9.6549 6.32148 9.37508 6.66666 9.37508H13.3333C13.6785 9.37508 13.9583 9.6549 13.9583 10.0001C13.9583 10.3453 13.6785 10.6251 13.3333 10.6251H6.66666C6.32148 10.6251 6.04166 10.3453 6.04166 10.0001Z" fill="#0088EA"/>
<path fill-rule="evenodd" clip-rule="evenodd" d="M9.99999 6.04175C10.3452 6.04175 10.625 6.32157 10.625 6.66675V13.3334C10.625 13.6786 10.3452 13.9584 9.99999 13.9584C9.65481 13.9584 9.37499 13.6786 9.37499 13.3334V6.66675C9.37499 6.32157 9.65481 6.04175 9.99999 6.04175Z" fill="#0088EA"/>
</g>
</g>
</svg>
