<svg width="20" height="20" viewBox="0 0 20 20" fill="none" xmlns="http://www.w3.org/2000/svg">
<path fill-rule="evenodd" clip-rule="evenodd" d="M15.3119 15.3058C17.2324 13.3863 17.8845 10.655 17.2847 8.1922C17.2721 8.14015 11.1633 9.79376 11.1699 9.84351C11.2171 10.1946 11.1063 10.5626 10.8366 10.8325C10.3764 11.2923 9.63063 11.2923 9.17063 10.8325C8.71063 10.3727 8.71063 9.62715 9.17063 9.1675C9.42139 8.91686 9.7569 8.80357 10.0848 8.82636C10.3364 7.89186 10.472 7.41409 10.7905 6.18448C10.4313 6.11004 10.0592 6.08635 9.68329 6.11648C7.54514 6.28812 5.94535 8.16642 6.11693 10.3037C6.20015 11.3389 6.68168 12.2799 7.47303 12.9533C7.76507 13.202 7.80035 13.6401 7.55167 13.932C7.41427 14.0933 7.21893 14.1762 7.02234 14.1762C6.86313 14.1762 6.70322 14.122 6.57234 14.0107C5.49855 13.0968 4.84502 11.8197 4.73206 10.4148C4.49908 7.51444 6.67029 4.96514 9.57214 4.73213C10.1074 4.68921 10.6442 4.73075 11.1537 4.84383C11.3751 4.02086 11.5139 3.50585 11.73 2.70162C11.1629 2.56821 10.5835 2.5 10.0035 2.5C8.08127 2.5 6.15889 3.23141 4.69525 4.69422C1.76825 7.61984 1.76825 12.3802 4.69525 15.3058C7.62252 18.2314 12.3848 18.2314 15.3119 15.3058Z" fill="white"/>
<path fill-rule="evenodd" clip-rule="evenodd" d="M10.5 9.5L17.5 7.62432C17.1823 6.43423 16.5586 5.3087 15.625 4.37499C14.6913 3.44127 13.5658 2.81767 12.3757 2.5L10.5 9.5Z" fill="white"/>
</svg>
