<svg width="17" height="17" viewBox="0 0 17 17" fill="none" xmlns="http://www.w3.org/2000/svg">
<g clip-path="url(#clip0_942_38465)">
<path d="M17 6.02083C17.0003 5.96321 16.9921 5.90583 16.9755 5.85039L15.8026 1.9612C15.7238 1.70314 15.559 1.47618 15.3329 1.31421C15.1068 1.15223 14.8315 1.06394 14.5481 1.0625H2.45192C2.16851 1.06394 1.89319 1.15223 1.66707 1.31421C1.44096 1.47618 1.27619 1.70314 1.19736 1.9612L0.025337 5.85039C0.00845291 5.90579 -7.71063e-05 5.96317 5.25135e-07 6.02083V7.26042C5.25135e-07 7.74152 0.118167 8.21601 0.345142 8.64631C0.572117 9.07662 0.901667 9.45092 1.30769 9.73958V14.6979C1.30769 15.0267 1.44547 15.342 1.69071 15.5744C1.93595 15.8069 2.26856 15.9375 2.61538 15.9375H14.3846C14.7314 15.9375 15.064 15.8069 15.3093 15.5744C15.5545 15.342 15.6923 15.0267 15.6923 14.6979V9.73958C16.0983 9.45092 16.4279 9.07662 16.6548 8.64631C16.8818 8.21601 17 7.74152 17 7.26042V6.02083ZM5.23077 7.26042C5.23065 7.58016 5.14355 7.89446 4.97788 8.17298C4.81222 8.4515 4.57358 8.68482 4.28503 8.8504C3.99647 9.01598 3.66775 9.10822 3.33061 9.11823C2.99347 9.12823 2.6593 9.05566 2.36038 8.90751C2.3149 8.87395 2.26487 8.84633 2.21163 8.82539C1.93463 8.65729 1.70666 8.42586 1.5487 8.15239C1.39075 7.87892 1.30787 7.57219 1.30769 7.26042V6.64062H5.23077V7.26042ZM10.4615 7.26042C10.4615 7.75355 10.2549 8.22649 9.88701 8.57519C9.51915 8.92389 9.02023 9.11979 8.5 9.11979C7.97976 9.11979 7.48084 8.92389 7.11298 8.57519C6.74512 8.22649 6.53846 7.75355 6.53846 7.26042V6.64062H10.4615V7.26042ZM15.6923 7.26042C15.692 7.57227 15.609 7.87904 15.4509 8.15252C15.2928 8.42599 15.0647 8.65738 14.7875 8.82539C14.735 8.84637 14.6856 8.87372 14.6404 8.90674C14.3415 9.05504 14.0074 9.12776 13.6702 9.11788C13.333 9.108 13.0042 9.01586 12.7155 8.85035C12.4269 8.68484 12.1881 8.45156 12.0224 8.17304C11.8566 7.89453 11.7694 7.5802 11.7692 7.26042V6.64062H15.6923V7.26042Z" fill="#F9B72F"/>
</g>
<defs>
<clipPath id="clip0_942_38465">
<rect width="17" height="17" fill="white"/>
</clipPath>
</defs>
</svg>
