<svg width="17" height="13" viewBox="0 0 17 13" fill="none" xmlns="http://www.w3.org/2000/svg">
<path d="M15.4919 3.8453C15.4645 3.77887 15.4357 3.71243 15.4062 3.646C14.964 2.65748 14.2482 1.80677 13.3381 1.18794H14.8065C14.9519 1.18794 15.0914 1.13195 15.1942 1.03228C15.2971 0.932608 15.3548 0.797426 15.3548 0.656471C15.3548 0.515516 15.2971 0.380334 15.1942 0.280664C15.0914 0.180994 14.9519 0.125 14.8065 0.125H7.67742C6.1612 0.126866 4.70115 0.681288 3.58719 1.67817C2.47324 2.67506 1.78686 4.0415 1.66435 5.50615C1.19066 5.62027 0.769771 5.88425 0.468314 6.25631C0.166858 6.62836 0.00205749 7.08723 0 7.56029C0 7.70124 0.0577763 7.83642 0.160619 7.93609C0.263461 8.03576 0.402946 8.09176 0.548387 8.09176C0.693828 8.09176 0.833313 8.03576 0.936155 7.93609C1.039 7.83642 1.09677 7.70124 1.09677 7.56029C1.0969 7.36648 1.1517 7.1764 1.25524 7.01059C1.35878 6.84479 1.50713 6.70958 1.68423 6.61958C1.82073 7.81198 2.33376 8.93445 3.15323 9.83365L4.01419 12.1695C4.09031 12.3761 4.23052 12.5548 4.4156 12.6811C4.60067 12.8074 4.82154 12.8752 5.0479 12.875H5.91984C6.14609 12.875 6.3668 12.8072 6.55174 12.6809C6.73668 12.5546 6.87679 12.376 6.95286 12.1695L7.08448 11.8121H11.0123L11.1439 12.1695C11.22 12.376 11.3601 12.5546 11.545 12.6809C11.73 12.8072 11.9507 12.875 12.1769 12.875H13.0489C13.2751 12.875 13.4958 12.8072 13.6808 12.6809C13.8657 12.5546 14.0058 12.376 14.0819 12.1695L15.1931 9.1547H15.3548C15.7912 9.1547 16.2096 8.98672 16.5181 8.68771C16.8267 8.3887 17 7.98315 17 7.56029V5.4344C17.0001 5.0345 16.8451 4.64917 16.5657 4.35483C16.2864 4.06049 15.9031 3.87863 15.4919 3.8453ZM10.4194 2.77704H7.67742C7.53198 2.77704 7.39249 2.72105 7.28965 2.62138C7.18681 2.52171 7.12903 2.38653 7.12903 2.24557C7.12903 2.10462 7.18681 1.96943 7.28965 1.86976C7.39249 1.77009 7.53198 1.7141 7.67742 1.7141H10.4194C10.5648 1.7141 10.7043 1.77009 10.8071 1.86976C10.91 1.96943 10.9677 2.10462 10.9677 2.24557C10.9677 2.38653 10.91 2.52171 10.8071 2.62138C10.7043 2.72105 10.5648 2.77704 10.4194 2.77704ZM12.3387 6.49734C12.176 6.49734 12.017 6.45059 11.8817 6.36299C11.7464 6.27539 11.641 6.15088 11.5787 6.00521C11.5165 5.85954 11.5002 5.69925 11.5319 5.54461C11.5637 5.38996 11.642 5.24792 11.7571 5.13642C11.8721 5.02493 12.0187 4.94901 12.1782 4.91825C12.3378 4.88749 12.5032 4.90327 12.6535 4.96361C12.8038 5.02395 12.9323 5.12613 13.0227 5.25723C13.113 5.38833 13.1613 5.54246 13.1613 5.70014C13.1613 5.91157 13.0746 6.11434 12.9204 6.26385C12.7661 6.41335 12.5569 6.49734 12.3387 6.49734Z" fill="#8398AF"/>
</svg>
